<?xml version="1.0" encoding="UTF-8" standalone="no"?>
<!-- Created with Inkscape (http://www.inkscape.org/) -->

<svg
   version="1.1"
   id="svg2"
   xml:space="preserve"
   width="2666.6667"
   height="2666.6667"
   viewBox="0 0 2666.6667 2666.6667"
   sodipodi:docname="Multitasking_Business_Woman_Spot_Outline.ai.svg"
   inkscape:version="1.1.2 (0a00cf5339, 2022-02-04)"
   xmlns:inkscape="http://www.inkscape.org/namespaces/inkscape"
   xmlns:sodipodi="http://sodipodi.sourceforge.net/DTD/sodipodi-0.dtd"
   xmlns="http://www.w3.org/2000/svg"
   xmlns:svg="http://www.w3.org/2000/svg"><defs
     id="defs6"><clipPath
       clipPathUnits="userSpaceOnUse"
       id="clipPath24"><path
         d="M 0,2000 H 2000 V 0 H 0 Z"
         id="path22" /></clipPath><linearGradient
       x1="0"
       y1="0"
       x2="1"
       y2="0"
       gradientUnits="userSpaceOnUse"
       gradientTransform="matrix(-190,-246,-246,190,1158.3971,1344.3257)"
       spreadMethod="pad"
       id="linearGradient242"><stop
         style="stop-opacity:1;stop-color:#c3996d"
         offset="0"
         id="stop238" /><stop
         style="stop-opacity:1;stop-color:#896239"
         offset="1"
         id="stop240" /></linearGradient><clipPath
       clipPathUnits="userSpaceOnUse"
       id="clipPath252"><path
         d="M 0,2000 H 2000 V 0 H 0 Z"
         id="path250" /></clipPath><linearGradient
       x1="0"
       y1="0"
       x2="1"
       y2="0"
       gradientUnits="userSpaceOnUse"
       gradientTransform="matrix(-93.289856,-114.18678,-114.18678,93.289856,481.55362,1219.3712)"
       spreadMethod="pad"
       id="linearGradient376"><stop
         style="stop-opacity:1;stop-color:#ffffff"
         offset="0"
         id="stop372" /><stop
         style="stop-opacity:1;stop-color:#e3e3e3"
         offset="1"
         id="stop374" /></linearGradient><linearGradient
       x1="0"
       y1="0"
       x2="1"
       y2="0"
       gradientUnits="userSpaceOnUse"
       gradientTransform="matrix(191.59087,0,0,-191.59087,350.94244,1176.7568)"
       spreadMethod="pad"
       id="linearGradient396"><stop
         style="stop-opacity:1;stop-color:#ffffff"
         offset="0"
         id="stop392" /><stop
         style="stop-opacity:1;stop-color:#e3e3e3"
         offset="1"
         id="stop394" /></linearGradient><clipPath
       clipPathUnits="userSpaceOnUse"
       id="clipPath406"><path
         d="M 0,2000 H 2000 V 0 H 0 Z"
         id="path404" /></clipPath><linearGradient
       x1="0"
       y1="0"
       x2="1"
       y2="0"
       gradientUnits="userSpaceOnUse"
       gradientTransform="matrix(120.66667,-75.333336,75.333336,120.66667,437.59598,801.28015)"
       spreadMethod="pad"
       id="linearGradient440"><stop
         style="stop-opacity:1;stop-color:#ffffff"
         offset="0"
         id="stop436" /><stop
         style="stop-opacity:1;stop-color:#e3e3e3"
         offset="1"
         id="stop438" /></linearGradient><clipPath
       clipPathUnits="userSpaceOnUse"
       id="clipPath450"><path
         d="M 0,2000 H 2000 V 0 H 0 Z"
         id="path448" /></clipPath></defs><sodipodi:namedview
     id="namedview4"
     pagecolor="#ffffff"
     bordercolor="#666666"
     borderopacity="1.0"
     inkscape:pageshadow="2"
     inkscape:pageopacity="0.0"
     inkscape:pagecheckerboard="0"
     showgrid="false"
     inkscape:zoom="0.20924999"
     inkscape:cx="1333.3334"
     inkscape:cy="568.69775"
     inkscape:window-width="1360"
     inkscape:window-height="732"
     inkscape:window-x="0"
     inkscape:window-y="0"
     inkscape:window-maximized="1"
     inkscape:current-layer="g8" /><g
     id="g8"
     inkscape:groupmode="layer"
     inkscape:label="Multitasking_Business_Woman_Spot_Outline"
     transform="matrix(1.3333333,0,0,-1.3333333,0,2666.6667)"><path
       d="m 2357.3279,-89.738096 h 2000 V 1910.2619 h -2000 z"
       style="fill:#ffffff;fill-opacity:1;fill-rule:nonzero;stroke:none"
       id="path10" /><path
       d="m 1262.796,1461.432 h -54.109 v -123.359 h 54.109 z"
       style="fill:#29a8df;fill-opacity:1;fill-rule:nonzero;stroke:none"
       id="path12" /><path
       d="m 1345.208,1561.439 h -54.11 v -223.365 h 54.11 z"
       style="fill:#29a8df;fill-opacity:1;fill-rule:nonzero;stroke:none"
       id="path14" /><path
       d="m 1427.62,1661.445 h -54.109 v -323.372 h 54.109 z"
       style="fill:#29a8df;fill-opacity:1;fill-rule:nonzero;stroke:none"
       id="path16" /><g
       id="g18"><g
         id="g20"
         clip-path="url(#clipPath24)"><g
           id="g26"
           transform="translate(1502.564,403.2368)"><path
             d="m 0,0 c 0,-46.223 -225.005,-83.694 -502.564,-83.694 -277.558,0 -502.564,37.471 -502.564,83.694 0,46.223 225.006,83.694 502.564,83.694 C -225.005,83.694 0,46.223 0,0"
             style="fill:#e3e3e3;fill-opacity:1;fill-rule:nonzero;stroke:none"
             id="path28" /></g><g
           id="g30"
           transform="translate(1181.6718,649.332)"><path
             d="m 0,0 -8.307,-16.218 -100.584,-48.729 -65.907,-5.01 -44.302,-3.353 -4.728,65.248 h 28.084 l 3.014,2.844 10.115,9.494 c 13.298,12.488 32.097,17.235 49.727,12.507 4.483,-1.206 9.06,-1.79 13.637,-1.79 8.345,0 16.651,1.978 24.167,5.877 l 43.944,22.679 c 4.841,2.505 10.304,3.522 15.728,2.957 l 15.709,-1.657 C -0.207,42.814 11.17,21.831 2.241,4.37 Z"
             style="fill:#666666;fill-opacity:1;fill-rule:nonzero;stroke:none"
             id="path32" /></g><g
           id="g34"
           transform="translate(988.9418,644.1144)"><path
             d="m 0,0 -3.014,-2.844 h -28.084 l -161.613,8.062 -2.242,4.37 c -8.928,17.461 2.449,38.444 21.944,40.478 l 15.71,1.658 c 5.424,0.565 10.887,-0.452 15.728,-2.958 l 43.944,-22.678 c 7.516,-3.899 15.822,-5.877 24.167,-5.877 4.577,0 9.154,0.584 13.637,1.789 17.63,4.728 36.429,-0.018 49.727,-12.507 z"
             style="fill:#666666;fill-opacity:1;fill-rule:nonzero;stroke:none"
             id="path36" /></g><g
           id="g38"
           transform="translate(1181.6718,649.332)"><path
             d="m 0,0 2.241,4.37 c 8.929,17.461 -2.448,38.444 -21.944,40.479 l -15.709,1.657 c -5.424,0.565 -10.887,-0.452 -15.728,-2.957 L -95.084,20.87 c -7.516,-3.899 -15.822,-5.877 -24.167,-5.877 -4.577,0 -9.154,0.584 -13.637,1.79 -17.63,4.728 -36.429,-0.019 -49.727,-12.507 l -10.115,-9.494 -10.096,9.494 c -13.298,12.488 -32.097,17.235 -49.727,12.507 -4.483,-1.206 -9.06,-1.79 -13.637,-1.79 -8.345,0 -16.651,1.978 -24.167,5.877 l -43.944,22.679 c -4.841,2.505 -10.304,3.522 -15.728,2.957 l -15.71,-1.657 C -385.234,42.814 -396.611,21.831 -387.682,4.37 l 2.241,-4.37 161.613,-8.062 4.728,-65.248 -194.233,-40.308 c -10.965,-2.275 -22.188,-3.052 -33.362,-2.309 l -86.853,5.774 c -33.152,2.204 -60.125,27.538 -64.419,60.482 -0.396,3.033 -0.584,6.047 -0.584,9.023 0,32.567 22.866,61.368 55.547,68.111 l 189.264,46.525 43.267,39.028 h 118.591 118.59 L -31.701,73.988 157.563,27.463 c 32.681,-6.743 55.529,-35.525 55.529,-68.073 0,-2.995 -0.189,-6.028 -0.584,-9.061 -4.276,-32.944 -31.249,-58.278 -64.401,-60.482 l -103.692,-6.894 -219.213,47.09 65.907,5.01 100.584,48.729 z"
             style="fill:#29a8df;fill-opacity:1;fill-rule:nonzero;stroke:none"
             id="path40" /></g><g
           id="g42"
           transform="translate(998.9393,644.1135)"><path
             d="m 0,0 -10.097,9.489 c -13.295,12.494 -32.106,17.225 -49.73,12.509 h -0.001 c -12.672,-3.391 -26.153,-1.936 -37.81,4.081 l -43.94,22.682 c -4.838,2.498 -10.301,3.526 -15.716,2.958 l -15.717,-1.649 c -19.5,-2.046 -30.869,-23.029 -21.935,-40.481 l 2.243,-4.382"
             style="fill:none;stroke:#54504f;stroke-width:8;stroke-linecap:round;stroke-linejoin:round;stroke-miterlimit:10;stroke-dasharray:none;stroke-opacity:1"
             id="path44" /></g><g
           id="g46"
           transform="translate(683.137,633.8842)"><path
             d="m 0,0 50.954,19.034 233.758,-11.65 4.71,-65.257 -194.228,-40.302 c -10.962,-2.275 -22.182,-3.052 -33.353,-2.31 l -86.858,5.77 c -33.157,2.203 -60.132,27.536 -64.41,60.49 v 0 c -4.691,36.132 19.277,69.767 54.96,77.128 l 189.25,46.52 43.28,39.03"
             style="fill:none;stroke:#54504f;stroke-width:8;stroke-linecap:round;stroke-linejoin:round;stroke-miterlimit:10;stroke-dasharray:none;stroke-opacity:1"
             id="path48" /></g><g
           id="g50"
           transform="translate(967.8489,641.2684)"><path
             d="m 0,0 h 28.078 l 13.125,12.334 c 13.295,12.494 32.106,17.226 49.73,12.509 12.672,-3.391 26.154,-1.936 37.81,4.081 l 43.94,22.682 c 4.838,2.498 10.301,3.526 15.716,2.958 l 15.718,-1.649 c 19.499,-2.046 30.869,-23.029 21.935,-40.481 L 215.505,-8.169 114.936,-56.887 4.71,-65.257"
             style="fill:none;stroke:#54504f;stroke-width:8;stroke-linecap:round;stroke-linejoin:round;stroke-miterlimit:10;stroke-dasharray:none;stroke-opacity:1"
             id="path52" /></g><g
           id="g54"
           transform="translate(1016.8718,579.3765)"><path
             d="m 0,0 202.283,-43.459 c 11.23,-2.412 22.742,-3.25 34.203,-2.489 l 86.416,5.741 c 33.157,2.202 60.133,27.536 64.411,60.489 v 0 c 4.69,36.132 -19.277,69.767 -54.961,77.129 l -189.25,46.52 -41.601,39.03"
             style="fill:none;stroke:#54504f;stroke-width:8;stroke-linecap:round;stroke-linejoin:round;stroke-miterlimit:10;stroke-dasharray:none;stroke-opacity:1"
             id="path56" /></g><g
           id="g58"
           transform="translate(1314.7571,633.8842)"><path
             d="m 0,0 -50.954,19.034 -72.145,-3.596"
             style="fill:none;stroke:#54504f;stroke-width:8;stroke-linecap:round;stroke-linejoin:round;stroke-miterlimit:10;stroke-dasharray:none;stroke-opacity:1"
             id="path60" /></g><g
           id="g62"
           transform="translate(727.3854,1199.2012)"><path
             d="m 0,0 -13.731,76.141 c -1.119,7.183 -7.844,12.102 -15.027,10.984 -3.315,-0.515 -6.15,-2.232 -8.129,-4.636 -2.304,-2.797 -3.449,-6.522 -2.85,-10.386 l -18.6,24.411 c -0.601,0.767 -1.274,1.448 -1.992,2.039 -4.689,3.859 -11.59,4.085 -16.559,0.174 -5.731,-4.507 -6.725,-12.815 -2.212,-18.55 l -0.098,-0.075 -6.564,8.549 c -0.601,0.767 -1.274,1.447 -1.992,2.039 -5.035,4.144 -12.621,4.099 -17.621,-0.754 -4.912,-4.767 -5.061,-12.639 -0.831,-18.02 l 6.342,-8.067 c -4.513,5.735 -12.815,6.725 -18.546,2.218 -0.767,-0.601 -1.447,-1.274 -2.039,-1.992 -3.86,-4.689 -4.085,-11.589 -0.179,-16.554 l 64.225,-81.44 60.497,23.827 z"
             style="fill:#ffd799;fill-opacity:1;fill-rule:nonzero;stroke:none"
             id="path64" /></g><g
           id="g66"
           transform="translate(904.3957,1062.0504)"><path
             d="m 0,0 -138.776,42.912 -34.14,84.147 -60.497,-23.827 0.694,-0.88 -16.832,-5.875 48.987,-74.691 c 8.557,-21.439 25.989,-38.116 47.786,-45.715 l 111.852,-32.173 0.982,-0.305 c 1.157,0.247 2.323,0.471 3.509,0.645 z"
             style="fill:#29a8df;fill-opacity:1;fill-rule:nonzero;stroke:none"
             id="path68" /></g><g
           id="g70"
           transform="translate(914.3962,1062.0511)"><path
             d="m 0,0 -138.776,42.913 -38.234,94.238 -13.731,76.14 c -1.119,7.183 -7.844,12.103 -15.027,10.985 -3.315,-0.516 -6.151,-2.232 -8.13,-4.636 -2.303,-2.798 -3.448,-6.522 -2.85,-10.386 l -18.6,24.411 c -0.601,0.767 -1.273,1.447 -1.991,2.039 -4.689,3.859 -11.59,4.085 -16.559,0.174 -5.731,-4.507 -6.725,-12.815 -2.213,-18.551 l -0.097,-0.074 -6.564,8.549 c -0.602,0.767 -1.274,1.447 -1.992,2.039 -5.035,4.145 -12.621,4.099 -17.621,-0.754 -4.912,-4.768 -5.061,-12.639 -0.831,-18.02 l 6.341,-8.067 c -4.512,5.735 -12.814,6.725 -18.546,2.218 -0.766,-0.601 -1.447,-1.274 -2.038,-1.992 -3.86,-4.689 -4.086,-11.59 -0.18,-16.554 l 64.92,-82.319 -16.831,-5.877 c 0,0 48.827,-74.836 51.308,-79.948 9.171,-18.898 25.483,-33.491 45.464,-40.457 l 111.852,-32.172"
             style="fill:none;stroke:#54504f;stroke-width:8;stroke-linecap:round;stroke-linejoin:round;stroke-miterlimit:10;stroke-dasharray:none;stroke-opacity:1"
             id="path72" /></g><g
           id="g74"
           transform="translate(737.3858,1199.2021)"><path
             d="m 0,0 -13.731,76.14 c -1.119,7.183 -7.843,12.103 -15.027,10.985 -3.315,-0.516 -6.15,-2.232 -8.129,-4.636 -2.304,-2.798 -3.449,-6.522 -2.85,-10.386 l 4.212,-40.953"
             style="fill:none;stroke:#54504f;stroke-width:8;stroke-linecap:round;stroke-linejoin:round;stroke-miterlimit:10;stroke-dasharray:none;stroke-opacity:1"
             id="path76" /></g><g
           id="g78"
           transform="translate(681.677,1164.4039)"><path
             d="M 0,0 59.803,24.706"
             style="fill:none;stroke:#54504f;stroke-width:8;stroke-linecap:round;stroke-linejoin:round;stroke-miterlimit:10;stroke-dasharray:none;stroke-opacity:1"
             id="path80" /></g><g
           id="g82"
           transform="translate(624.8245,1014.1046)"><path
             d="m 0,0 -63.639,44 c -5.879,4.276 -14.111,2.982 -18.387,-2.897 -1.974,-2.712 -2.759,-5.933 -2.452,-9.031 0.357,-3.606 2.188,-7.046 5.348,-9.348 l -30.422,4.046 c -0.967,0.115 -1.924,0.119 -2.85,0.028 -6.043,-0.599 -11.073,-5.329 -11.808,-11.61 -0.85,-7.242 4.335,-13.808 11.583,-14.658 l -0.016,-0.121 -10.69,1.381 c -0.968,0.115 -1.924,0.119 -2.85,0.027 -6.489,-0.643 -11.81,-6.05 -11.9,-13.017 -0.088,-6.845 5.384,-12.505 12.182,-13.305 l 10.191,-1.2 c -7.248,0.85 -13.808,-4.334 -14.659,-11.575 -0.115,-0.967 -0.118,-1.924 -0.027,-2.85 0.599,-6.044 5.329,-11.073 11.603,-11.809 L -15.768,-63.899 10.04,-4.22 Z"
             style="fill:#ffd799;fill-opacity:1;fill-rule:nonzero;stroke:none"
             id="path84" /></g><g
           id="g86"
           transform="translate(846.9114,1042.7455)"><path
             d="m 0,0 -128.333,-68.049 -83.714,35.188 -25.808,-59.679 1.114,-0.129 -7.715,-16.072 87.49,-17.996 c 21.23,-9.066 45.347,-8.483 66.113,1.599 l 101.725,56.551 0.909,0.481 c 0.641,0.993 1.306,1.978 2.02,2.941 z"
             style="fill:#29a8df;fill-opacity:1;fill-rule:nonzero;stroke:none"
             id="path88" /></g><g
           id="g90"
           transform="translate(856.9115,1042.7458)"><path
             d="m 0,0 -128.334,-68.049 -93.753,39.408 -63.639,44 c -5.879,4.276 -14.111,2.983 -18.387,-2.896 -1.974,-2.713 -2.759,-5.933 -2.452,-9.031 0.357,-3.607 2.188,-7.046 5.348,-9.349 l -30.422,4.047 c -0.967,0.115 -1.924,0.118 -2.85,0.027 -6.043,-0.599 -11.073,-5.329 -11.808,-11.61 -0.851,-7.241 4.334,-13.808 11.583,-14.658 l -0.016,-0.121 -10.69,1.381 c -0.968,0.115 -1.924,0.119 -2.85,0.027 -6.49,-0.642 -11.811,-6.05 -11.9,-13.017 -0.088,-6.845 5.383,-12.505 12.182,-13.305 l 10.191,-1.199 c -7.249,0.85 -13.808,-4.334 -14.659,-11.576 -0.115,-0.967 -0.119,-1.924 -0.027,-2.85 0.598,-6.043 5.329,-11.073 11.603,-11.809 l 104.138,-12.089 -7.713,-16.073 c 0,0 87.481,-18.211 92.853,-20.061 19.862,-6.837 41.714,-5.576 60.749,3.666 l 101.724,56.55"
             style="fill:none;stroke:#54504f;stroke-width:8;stroke-linecap:round;stroke-linejoin:round;stroke-miterlimit:10;stroke-dasharray:none;stroke-opacity:1"
             id="path92" /></g><g
           id="g94"
           transform="translate(634.8242,1014.1052)"><path
             d="m 0,0 -63.639,44 c -5.879,4.276 -14.11,2.982 -18.386,-2.897 -1.975,-2.712 -2.76,-5.933 -2.453,-9.031 0.357,-3.606 2.188,-7.046 5.348,-9.348 l 31.99,-25.915"
             style="fill:none;stroke:#54504f;stroke-width:8;stroke-linecap:round;stroke-linejoin:round;stroke-miterlimit:10;stroke-dasharray:none;stroke-opacity:1"
             id="path96" /></g><g
           id="g98"
           transform="translate(620.1696,950.0768)"><path
             d="M 0,0 24.695,59.808"
             style="fill:none;stroke:#54504f;stroke-width:8;stroke-linecap:round;stroke-linejoin:round;stroke-miterlimit:10;stroke-dasharray:none;stroke-opacity:1"
             id="path100" /></g><g
           id="g102"
           transform="translate(863.866,970.2094)"><path
             d="m 0,0 54.326,95.566 h -22.59 c -28.443,0 -54.443,-16.032 -67.197,-41.451 l -56.648,-115.784 -66.153,-96.708 54.05,-36.77 16.771,-9.977 53.053,112.419 34.075,63.398 0.507,0.029 C 0.06,-27.817 0,-26.327 0,-24.823 Z"
             style="fill:#29a8df;fill-opacity:1;fill-rule:nonzero;stroke:none"
             id="path104" /></g><g
           id="g106"
           transform="translate(699.0471,802.2465)"><path
             d="m 0,0 -68.032,-36.862 c -6.481,-3.307 -9.044,-11.234 -5.736,-17.7 1.52,-2.995 4.038,-5.141 6.943,-6.273 3.382,-1.311 7.271,-1.237 10.758,0.536 L -73.44,-85.598 c -0.536,-0.805 -0.969,-1.654 -1.311,-2.533 -2.205,-5.662 -0.254,-12.277 5.006,-15.779 6.079,-4.037 14.289,-2.384 18.327,3.695 l 0.089,-0.059 -6.064,-8.91 c -0.537,-0.82 -0.969,-1.669 -1.311,-2.533 -2.369,-6.079 0.044,-13.275 6.228,-16.509 6.064,-3.173 13.588,-0.849 17.372,4.858 l 5.677,8.537 c -4.038,-6.079 -2.384,-14.274 3.695,-18.312 0.805,-0.536 1.669,-0.968 2.533,-1.311 5.662,-2.19 12.277,-0.253 15.779,5.007 l 57.885,87.4 10.141,14.863 -54.049,36.77 z"
             style="fill:#ffd799;fill-opacity:1;fill-rule:nonzero;stroke:none"
             id="path108" /></g><g
           id="g110"
           transform="translate(759.5219,760.199)"><path
             d="m 0,0 10.132,14.863 16.771,-9.977 53.058,112.412 34.578,63.435"
             style="fill:none;stroke:#54504f;stroke-width:8;stroke-linecap:round;stroke-linejoin:round;stroke-miterlimit:10;stroke-dasharray:none;stroke-opacity:1"
             id="path112" /></g><g
           id="g114"
           transform="translate(709.0489,802.2328)"><path
             d="m 0,0 -68.028,-36.851 c -6.473,-3.309 -9.044,-11.235 -5.735,-17.708 1.526,-2.987 4.043,-5.144 6.945,-6.272 3.378,-1.313 7.274,-1.236 10.756,0.54 l -17.37,-25.3 c -0.541,-0.811 -0.977,-1.662 -1.314,-2.529 -2.2,-5.661 -0.256,-12.286 5.013,-15.783 6.073,-4.034 14.274,-2.381 18.312,3.699 l 0.1,-0.069 -6.067,-8.909 c -0.541,-0.811 -0.977,-1.662 -1.314,-2.529 -2.362,-6.079 0.053,-13.27 6.226,-16.502 6.065,-3.175 13.588,-0.855 17.377,4.846 l 5.679,8.546 c -4.037,-6.08 -2.381,-14.275 3.693,-18.31 0.81,-0.54 1.662,-0.976 2.529,-1.313 5.66,-2.2 12.286,-0.257 15.78,5.006 l 57.891,87.404"
             style="fill:none;stroke:#54504f;stroke-width:8;stroke-linecap:round;stroke-linejoin:round;stroke-miterlimit:10;stroke-dasharray:none;stroke-opacity:1"
             id="path116" /></g><g
           id="g118"
           transform="translate(928.1926,1065.7753)"><path
             d="m 0,0 h -22.591 c -28.435,0 -54.438,-16.042 -67.195,-41.454 l -56.638,-115.79 -72.72,-106.298"
             style="fill:none;stroke:#54504f;stroke-width:8;stroke-linecap:round;stroke-linejoin:round;stroke-miterlimit:10;stroke-dasharray:none;stroke-opacity:1"
             id="path120" /></g><g
           id="g122"
           transform="translate(652.9872,741.9421)"><path
             d="M 0,0 43.479,18.257"
             style="fill:none;stroke:#54504f;stroke-width:8;stroke-linecap:round;stroke-linejoin:round;stroke-miterlimit:10;stroke-dasharray:none;stroke-opacity:1"
             id="path124" /></g><g
           id="g126"
           transform="translate(769.6541,775.0623)"><path
             d="M 0,0 -54.05,36.77"
             style="fill:none;stroke:#54504f;stroke-width:8;stroke-linecap:round;stroke-linejoin:round;stroke-miterlimit:10;stroke-dasharray:none;stroke-opacity:1"
             id="path128" /></g><g
           id="g130"
           transform="translate(914.8317,1065.7797)"><path
             d="m 0,0 -50.966,-95.579 v -24.813 c 0,-15.004 6.081,-28.578 15.909,-38.424 l 10.551,-89.353 -62.394,-94.291 115.826,-21.332 0.921,60.35 h 0.955 L 33.315,0 Z"
             style="fill:#29a8df;fill-opacity:1;fill-rule:nonzero;stroke:none"
             id="path132" /></g><g
           id="g134"
           transform="translate(988.1314,994.5795)"><path
             d="m 0,0 -38.858,71.2 h -1.127 l -2.513,-303.442 h 86.6 L 42.838,68.701 Z"
             style="fill:#ffffff;fill-opacity:1;fill-rule:nonzero;stroke:none"
             id="path136" /></g><g
           id="g138"
           transform="translate(1097.5839,817.6125)"><path
             d="m 0,0 10.262,91.994 -0.289,0.235 c 8.253,9.52 13.248,21.954 13.248,35.546 v 24.813 l -47.762,95.579 h -30.515 l -1.558,-2.499 1.264,-300.943 h 0.295 l 1.617,-60.35 115.825,21.332 z"
             style="fill:#29a8df;fill-opacity:1;fill-rule:nonzero;stroke:none"
             id="path140" /></g><g
           id="g142"
           transform="translate(1252.6134,1199.2012)"><path
             d="m 0,0 13.731,76.141 c 1.119,7.183 7.844,12.102 15.027,10.984 3.315,-0.515 6.15,-2.232 8.129,-4.636 2.304,-2.797 3.449,-6.522 2.85,-10.386 l 18.6,24.411 c 0.601,0.767 1.274,1.448 1.992,2.039 4.689,3.859 11.59,4.085 16.558,0.174 5.732,-4.507 6.726,-12.815 2.213,-18.55 l 0.098,-0.075 6.564,8.549 c 0.601,0.767 1.274,1.447 1.992,2.039 5.035,4.144 12.621,4.099 17.621,-0.754 4.911,-4.767 5.061,-12.639 0.831,-18.02 l -6.342,-8.067 c 4.513,5.735 12.815,6.725 18.546,2.218 0.767,-0.601 1.447,-1.274 2.039,-1.992 3.86,-4.689 4.085,-11.589 0.179,-16.554 l -64.225,-81.44 -60.497,23.827 z"
             style="fill:#ffd799;fill-opacity:1;fill-rule:nonzero;stroke:none"
             id="path144" /></g><g
           id="g146"
           transform="translate(1085.6038,1062.0504)"><path
             d="m 0,0 138.776,42.912 34.14,84.147 60.497,-23.827 -0.694,-0.88 16.832,-5.875 -48.987,-74.691 C 192.007,0.347 174.575,-16.33 152.778,-23.929 L 40.926,-56.102 39.944,-56.407 c -1.157,0.247 -2.323,0.471 -3.51,0.645 z"
             style="fill:#29a8df;fill-opacity:1;fill-rule:nonzero;stroke:none"
             id="path148" /></g><g
           id="g150"
           transform="translate(1085.6039,1062.0511)"><path
             d="m 0,0 138.776,42.913 38.234,94.238 13.731,76.14 c 1.119,7.183 7.844,12.103 15.027,10.985 3.315,-0.516 6.151,-2.232 8.129,-4.636 2.304,-2.798 3.449,-6.522 2.851,-10.386 l 18.6,24.411 c 0.601,0.767 1.273,1.447 1.991,2.039 4.689,3.859 11.59,4.085 16.559,0.174 5.731,-4.507 6.725,-12.815 2.213,-18.551 l 0.097,-0.074 6.564,8.549 c 0.602,0.767 1.274,1.447 1.992,2.039 5.035,4.145 12.621,4.099 17.621,-0.754 4.912,-4.768 5.061,-12.639 0.831,-18.02 L 276.875,201 c 4.512,5.735 12.814,6.725 18.546,2.218 0.766,-0.601 1.447,-1.274 2.038,-1.992 3.86,-4.689 4.086,-11.59 0.18,-16.554 l -64.92,-82.319 16.831,-5.877 c 0,0 -48.827,-74.836 -51.308,-79.948 -9.171,-18.898 -25.483,-33.491 -45.465,-40.457 L 40.926,-56.101"
             style="fill:none;stroke:#54504f;stroke-width:8;stroke-linecap:round;stroke-linejoin:round;stroke-miterlimit:10;stroke-dasharray:none;stroke-opacity:1"
             id="path152" /></g><g
           id="g154"
           transform="translate(1262.6143,1199.2021)"><path
             d="m 0,0 13.731,76.14 c 1.119,7.183 7.843,12.103 15.027,10.985 3.315,-0.516 6.15,-2.232 8.129,-4.636 2.304,-2.798 3.448,-6.522 2.85,-10.386 L 35.525,31.15"
             style="fill:none;stroke:#54504f;stroke-width:8;stroke-linecap:round;stroke-linejoin:round;stroke-miterlimit:10;stroke-dasharray:none;stroke-opacity:1"
             id="path156" /></g><g
           id="g158"
           transform="translate(1318.323,1164.4039)"><path
             d="M 0,0 -59.803,24.706"
             style="fill:none;stroke:#54504f;stroke-width:8;stroke-linecap:round;stroke-linejoin:round;stroke-miterlimit:10;stroke-dasharray:none;stroke-opacity:1"
             id="path160" /></g><g
           id="g162"
           transform="translate(1355.1743,1014.1046)"><path
             d="M 0,0 63.639,44 C 69.518,48.276 77.75,46.982 82.026,41.103 84,38.391 84.785,35.17 84.478,32.072 84.121,28.466 82.29,25.026 79.13,22.724 l 30.422,4.046 c 0.967,0.115 1.924,0.119 2.85,0.028 6.043,-0.599 11.073,-5.329 11.808,-11.61 C 125.06,7.946 119.875,1.38 112.627,0.53 l 0.016,-0.121 10.69,1.381 c 0.968,0.115 1.924,0.119 2.85,0.027 6.489,-0.643 11.81,-6.05 11.9,-13.017 0.088,-6.845 -5.384,-12.505 -12.182,-13.305 l -10.191,-1.2 c 7.248,0.85 13.808,-4.334 14.659,-11.575 0.115,-0.967 0.118,-1.924 0.027,-2.85 -0.599,-6.044 -5.329,-11.073 -11.603,-11.809 L 15.768,-63.899 -10.04,-4.22 Z"
             style="fill:#ffd799;fill-opacity:1;fill-rule:nonzero;stroke:none"
             id="path164" /></g><g
           id="g166"
           transform="translate(1143.0879,1042.7455)"><path
             d="m 0,0 128.334,-68.049 83.713,35.188 25.808,-59.679 -1.114,-0.129 7.715,-16.072 -87.49,-17.996 c -21.23,-9.066 -45.347,-8.483 -66.113,1.599 l -101.725,56.551 -0.909,0.481 c -0.641,0.993 -1.306,1.978 -2.02,2.941 z"
             style="fill:#29a8df;fill-opacity:1;fill-rule:nonzero;stroke:none"
             id="path168" /></g><g
           id="g170"
           transform="translate(1143.0885,1042.7458)"><path
             d="m 0,0 128.334,-68.049 93.753,39.408 63.639,44 c 5.879,4.276 14.111,2.983 18.387,-2.896 1.974,-2.713 2.759,-5.933 2.452,-9.031 -0.357,-3.607 -2.188,-7.046 -5.348,-9.349 l 30.422,4.047 c 0.967,0.115 1.924,0.118 2.85,0.027 6.043,-0.599 11.073,-5.329 11.808,-11.61 0.851,-7.241 -4.334,-13.808 -11.583,-14.658 l 0.016,-0.121 10.69,1.381 c 0.968,0.115 1.924,0.119 2.85,0.027 6.49,-0.642 11.811,-6.05 11.9,-13.017 0.088,-6.845 -5.384,-12.505 -12.182,-13.305 l -10.191,-1.199 c 7.249,0.85 13.808,-4.334 14.659,-11.576 0.115,-0.967 0.119,-1.924 0.027,-2.85 -0.598,-6.043 -5.329,-11.073 -11.603,-11.809 l -104.138,-12.089 7.713,-16.073 c 0,0 -87.481,-18.211 -92.853,-20.061 -19.862,-6.837 -41.714,-5.576 -60.749,3.666 l -101.724,56.55"
             style="fill:none;stroke:#54504f;stroke-width:8;stroke-linecap:round;stroke-linejoin:round;stroke-miterlimit:10;stroke-dasharray:none;stroke-opacity:1"
             id="path172" /></g><g
           id="g174"
           transform="translate(1365.1758,1014.1052)"><path
             d="M 0,0 63.639,44 C 69.518,48.276 77.75,46.982 82.026,41.103 84,38.391 84.785,35.17 84.478,32.072 84.121,28.466 82.29,25.026 79.13,22.724 L 47.14,-3.191"
             style="fill:none;stroke:#54504f;stroke-width:8;stroke-linecap:round;stroke-linejoin:round;stroke-miterlimit:10;stroke-dasharray:none;stroke-opacity:1"
             id="path176" /></g><g
           id="g178"
           transform="translate(1379.8303,950.0768)"><path
             d="M 0,0 -24.695,59.808"
             style="fill:none;stroke:#54504f;stroke-width:8;stroke-linecap:round;stroke-linejoin:round;stroke-miterlimit:10;stroke-dasharray:none;stroke-opacity:1"
             id="path180" /></g><g
           id="g182"
           transform="translate(1275.6289,802.2465)"><path
             d="m 0,0 68.031,-36.862 c 6.482,-3.307 9.044,-11.234 5.737,-17.7 -1.52,-2.995 -4.038,-5.141 -6.943,-6.273 -3.382,-1.311 -7.271,-1.237 -10.758,0.536 L 73.44,-85.598 c 0.536,-0.805 0.969,-1.654 1.311,-2.533 2.205,-5.662 0.254,-12.277 -5.006,-15.779 -6.079,-4.037 -14.289,-2.384 -18.327,3.695 l -0.089,-0.059 6.064,-8.91 c 0.537,-0.82 0.969,-1.669 1.311,-2.533 2.369,-6.079 -0.044,-13.275 -6.228,-16.509 -6.064,-3.173 -13.588,-0.849 -17.372,4.858 l -5.677,8.537 c 4.038,-6.079 2.384,-14.274 -3.695,-18.312 -0.805,-0.536 -1.669,-0.968 -2.533,-1.311 -5.662,-2.19 -12.277,-0.253 -15.779,5.007 l -57.885,87.4 -10.141,14.863 54.049,36.77 z"
             style="fill:#ffd799;fill-opacity:1;fill-rule:nonzero;stroke:none"
             id="path184" /></g><g
           id="g186"
           transform="translate(1120.8105,970.2094)"><path
             d="m 0,0 -47.768,95.566 h 16.032 c 28.443,0 54.443,-16.032 67.197,-41.451 l 56.648,-115.784 66.153,-96.708 -54.049,-36.77 -16.772,-9.977 -53.053,112.419 -34.075,63.398 -0.507,0.029 C -0.06,-27.817 0,-26.327 0,-24.823 Z"
             style="fill:#29a8df;fill-opacity:1;fill-rule:nonzero;stroke:none"
             id="path188" /></g><g
           id="g190"
           transform="translate(1235.1553,760.199)"><path
             d="m 0,0 -10.132,14.863 -16.771,-9.977 -53.058,112.412 -34.578,63.435"
             style="fill:none;stroke:#54504f;stroke-width:8;stroke-linecap:round;stroke-linejoin:round;stroke-miterlimit:10;stroke-dasharray:none;stroke-opacity:1"
             id="path192" /></g><g
           id="g194"
           transform="translate(1285.6283,802.2328)"><path
             d="m 0,0 68.028,-36.851 c 6.473,-3.309 9.044,-11.235 5.735,-17.708 -1.526,-2.987 -4.043,-5.144 -6.945,-6.272 -3.378,-1.313 -7.273,-1.236 -10.756,0.54 l 17.37,-25.3 c 0.541,-0.811 0.977,-1.662 1.314,-2.529 2.2,-5.661 0.256,-12.286 -5.013,-15.783 -6.073,-4.034 -14.274,-2.381 -18.311,3.699 l -0.101,-0.069 6.067,-8.909 c 0.541,-0.811 0.977,-1.662 1.314,-2.529 2.362,-6.079 -0.053,-13.27 -6.226,-16.502 -6.065,-3.175 -13.588,-0.855 -17.377,4.846 l -5.679,8.546 c 4.037,-6.08 2.381,-14.275 -3.692,-18.31 -0.811,-0.54 -1.663,-0.976 -2.53,-1.313 -5.66,-2.2 -12.286,-0.257 -15.78,5.006 l -57.891,87.404"
             style="fill:none;stroke:#54504f;stroke-width:8;stroke-linecap:round;stroke-linejoin:round;stroke-miterlimit:10;stroke-dasharray:none;stroke-opacity:1"
             id="path196" /></g><g
           id="g198"
           transform="translate(1073.0425,1065.7753)"><path
             d="m 0,0 h 16.033 c 28.435,0 54.438,-16.042 67.195,-41.454 l 56.638,-115.79 72.72,-106.298"
             style="fill:none;stroke:#54504f;stroke-width:8;stroke-linecap:round;stroke-linejoin:round;stroke-miterlimit:10;stroke-dasharray:none;stroke-opacity:1"
             id="path200" /></g><g
           id="g202"
           transform="translate(1285.6283,802.2328)"><path
             d="m 0,0 68.028,-36.851 c 6.473,-3.309 9.044,-11.235 5.735,-17.708 -1.526,-2.987 -4.043,-5.144 -6.945,-6.272 -3.378,-1.313 -7.273,-1.236 -10.756,0.54 l -37.583,16.807"
             style="fill:none;stroke:#54504f;stroke-width:8;stroke-linecap:round;stroke-linejoin:round;stroke-miterlimit:10;stroke-dasharray:none;stroke-opacity:1"
             id="path204" /></g><g
           id="g206"
           transform="translate(1225.0231,775.0623)"><path
             d="M 0,0 54.05,36.77"
             style="fill:none;stroke:#54504f;stroke-width:8;stroke-linecap:round;stroke-linejoin:round;stroke-miterlimit:10;stroke-dasharray:none;stroke-opacity:1"
             id="path208" /></g><g
           id="g210"
           transform="translate(1032.5277,1065.7797)"><path
             d="M 0,0 -44.396,-71.2 -83.254,0 Z"
             style="fill:#ffd799;fill-opacity:1;fill-rule:nonzero;stroke:none"
             id="path212" /></g><g
           id="g214"
           transform="translate(1045.3832,1271.7632)"><path
             d="m 0,0 c -43.08,21.379 -97.509,-0.595 -121.57,-49.081 -3.797,-7.651 -20.571,-22.24 -22.449,-30.126 -2.584,-10.856 10.567,-15.037 11.411,-25.57 0.332,-4.148 0.93,-8.234 1.768,-12.237 l 35.47,-7.119 2.953,2.901 -2.953,-2.901 15.812,-3.174 -15.812,3.174 -23.341,-22.926 c 7.672,-12.006 18.308,-21.939 31.575,-28.523 43.08,-21.379 97.509,0.595 121.571,49.081 C 58.497,-78.016 43.08,-21.379 0,0"
             style="fill:#ffd799;fill-opacity:1;fill-rule:nonzero;stroke:none"
             id="path216" /></g><g
           id="g218"
           transform="translate(924.8072,1151.7385)"><path
             d="m 0,0 c -0.951,4.316 -1.612,8.737 -1.971,13.227 -0.844,10.533 -13.995,14.714 -11.411,25.57 1.877,7.885 18.651,22.475 22.448,30.126 8.812,17.756 21.696,31.956 36.604,41.774"
             style="fill:none;stroke:#54504f;stroke-width:8;stroke-linecap:round;stroke-linejoin:round;stroke-miterlimit:10;stroke-dasharray:none;stroke-opacity:1"
             id="path220" /></g><g
           id="g222"
           transform="translate(1041.2244,1092.6377)"><path
             d="m 0,0 c -32.107,-10.857 -57.566,-6.096 -72.916,1.522 -12.735,6.32 -23.053,15.721 -30.648,27.082"
             style="fill:none;stroke:#54504f;stroke-width:8;stroke-linecap:round;stroke-linejoin:round;stroke-miterlimit:10;stroke-dasharray:none;stroke-opacity:1"
             id="path224" /></g></g></g><g
       id="g226"><g
         id="g228"><g
           id="g234"><g
             id="g236"><path
               d="m 949.37,1280.324 c 10.994,-22.543 36.415,-45.086 76.726,-44.331 v 0 l -8.932,-79.997 c -7.058,-63.21 52.033,-113.513 113.305,-96.457 v 0 l 10.823,96.92 -0.101,-0.097 c 0.379,4.337 0.645,8.708 0.732,13.124 v 0 c 1.602,82.283 -56.043,144.74 -181.915,155.118 v 0 c -0.564,0.046 -1.11,0.069 -1.645,0.069 v 0 c -16.66,0 -19.807,-22.176 -8.993,-44.349"
               style="fill:url(#linearGradient242);stroke:none"
               id="path244" /></g></g></g></g><g
       id="g246"><g
         id="g248"
         clip-path="url(#clipPath252)"><g
           id="g254"
           transform="translate(969.9183,1323.2649)"><path
             d="m 0,0 c 125.872,-10.378 183.517,-72.835 181.915,-155.118 -0.086,-4.416 -0.353,-8.787 -0.732,-13.123 l 0.101,0.095 -10.822,-96.919 v 0 c -61.272,-17.057 -120.364,33.247 -113.306,96.457 l 8.932,79.997 C -15.146,-90.132 -35.911,2.961 0,0 Z"
             style="fill:none;stroke:#54504f;stroke-width:8;stroke-linecap:round;stroke-linejoin:round;stroke-miterlimit:10;stroke-dasharray:none;stroke-opacity:1"
             id="path256" /></g><g
           id="g258"
           transform="translate(937.6719,1121.249)"><path
             d="m 0,0 22.403,22.726 -34.891,6.155"
             style="fill:none;stroke:#54504f;stroke-width:8;stroke-linecap:round;stroke-linejoin:round;stroke-miterlimit:10;stroke-dasharray:none;stroke-opacity:1"
             id="path260" /></g><g
           id="g262"
           transform="translate(1097.5839,817.6125)"><path
             d="M 0,0 10.25,91.992"
             style="fill:none;stroke:#54504f;stroke-width:8;stroke-linecap:round;stroke-linejoin:round;stroke-miterlimit:10;stroke-dasharray:none;stroke-opacity:1"
             id="path264" /></g><g
           id="g266"
           transform="translate(889.7766,906.9694)"><path
             d="m 0,0 10.543,-89.357 -62.387,-94.293 115.826,-21.332 5.514,361.25"
             style="fill:none;stroke:#54504f;stroke-width:8;stroke-linecap:round;stroke-linejoin:round;stroke-miterlimit:10;stroke-dasharray:none;stroke-opacity:1"
             id="path268" /></g><g
           id="g270"
           transform="translate(1073.0425,1065.7753)"><path
             d="M 0,0 H -30.516 L -74.918,-71.19 -113.77,0 h -48.417"
             style="fill:none;stroke:#54504f;stroke-width:8;stroke-linecap:round;stroke-linejoin:round;stroke-miterlimit:10;stroke-dasharray:none;stroke-opacity:1"
             id="path272" /></g><g
           id="g274"
           transform="translate(1042.5262,1065.7753)"><path
             d="M 0,0 H -83.254"
             style="fill:none;stroke:#54504f;stroke-width:8;stroke-linecap:round;stroke-linejoin:round;stroke-miterlimit:10;stroke-dasharray:none;stroke-opacity:1"
             id="path276" /></g><g
           id="g278"
           transform="translate(928.1926,891.0577)"><path
             d="M 0,0 C -30.004,0 -54.328,24.323 -54.328,54.328 V 79.147"
             style="fill:none;stroke:#54504f;stroke-width:8;stroke-linecap:round;stroke-linejoin:round;stroke-miterlimit:10;stroke-dasharray:none;stroke-opacity:1"
             id="path280" /></g><g
           id="g282"
           transform="translate(1066.48,891.0577)"><path
             d="m 0,0 c 16.281,0 30.888,7.161 40.846,18.506 8.393,9.562 13.482,22.098 13.482,35.822 v 24.819"
             style="fill:none;stroke:#54504f;stroke-width:8;stroke-linecap:round;stroke-linejoin:round;stroke-miterlimit:10;stroke-dasharray:none;stroke-opacity:1"
             id="path284" /></g><g
           id="g286"
           transform="translate(1097.5839,817.6125)"><path
             d="m 0,0 62.387,-94.293 -115.825,-21.332 -1.618,363.792"
             style="fill:none;stroke:#54504f;stroke-width:8;stroke-linecap:round;stroke-linejoin:round;stroke-miterlimit:10;stroke-dasharray:none;stroke-opacity:1"
             id="path288" /></g><g
           id="g290"
           transform="translate(1042.5283,762.3373)"><path
             d="M 0,0 H -87.849"
             style="fill:none;stroke:#54504f;stroke-width:8;stroke-linecap:round;stroke-linejoin:round;stroke-miterlimit:10;stroke-dasharray:none;stroke-opacity:1"
             id="path292" /></g><g
           id="g294"
           transform="translate(1094.5837,633.4005)"><path
             d="M 0,0 22.333,-46.313"
             style="fill:none;stroke:#54504f;stroke-width:8;stroke-linecap:round;stroke-linejoin:round;stroke-miterlimit:10;stroke-dasharray:none;stroke-opacity:1"
             id="path296" /></g><g
           id="g298"
           transform="translate(1119.4507,644.4995)"><path
             d="M 0,0 22.333,-46.313"
             style="fill:none;stroke:#54504f;stroke-width:8;stroke-linecap:round;stroke-linejoin:round;stroke-miterlimit:10;stroke-dasharray:none;stroke-opacity:1"
             id="path300" /></g><g
           id="g302"
           transform="translate(1133.7806,1431.5438)"><path
             d="M 0,0 V 0 0 C -37.906,-10.206 -67.516,-39.815 -77.721,-77.721 -87.927,-39.815 -117.536,-10.206 -155.442,0 h -0.001 0.001 c 37.906,10.206 67.515,39.815 77.721,77.721 C -67.516,39.815 -37.906,10.206 0,0"
             style="fill:#ffffff;fill-opacity:1;fill-rule:nonzero;stroke:none"
             id="path304" /></g><g
           id="g306"
           transform="translate(956.3104,1479.2301)"><path
             d="M 0,0 V 0 C -24.408,-6.572 -43.474,-25.637 -50.046,-50.046 -56.617,-25.637 -75.683,-6.572 -100.091,0 h -0.001 0.001 c 24.408,6.572 43.474,25.637 50.045,50.046 v 0 0 C -43.474,25.637 -24.408,6.572 0,0"
             style="fill:#ffffff;fill-opacity:1;fill-rule:nonzero;stroke:none"
             id="path308" /></g><g
           id="g310"
           transform="translate(1143.7813,1431.5438)"><path
             d="M 0,0 V 0 0 C -37.906,-10.206 -67.516,-39.815 -77.721,-77.721 -87.927,-39.815 -117.536,-10.206 -155.442,0 h -0.001 0.001 c 37.906,10.206 67.515,39.815 77.721,77.721 C -67.516,39.815 -37.906,10.206 0,0 Z"
             style="fill:none;stroke:#54504f;stroke-width:8;stroke-linecap:round;stroke-linejoin:round;stroke-miterlimit:10;stroke-dasharray:none;stroke-opacity:1"
             id="path312" /></g><g
           id="g314"
           transform="translate(966.311,1479.2299)"><path
             d="m 0,0 v 0 0 c -24.408,-6.572 -43.474,-25.637 -50.046,-50.046 v 0 C -56.617,-25.637 -75.683,-6.572 -100.091,0 h -0.001 0.001 c 24.408,6.572 43.474,25.637 50.045,50.046 v 0 C -43.474,25.637 -24.408,6.572 0,0 Z"
             style="fill:none;stroke:#54504f;stroke-width:8;stroke-linecap:round;stroke-linejoin:round;stroke-miterlimit:10;stroke-dasharray:none;stroke-opacity:1"
             id="path316" /></g><g
           id="g318"
           transform="translate(1489.1139,1055.9556)"><path
             d="m 0,0 h 150.275 v 12.091 c 0,4.497 -3.646,8.142 -8.143,8.142 H 8.143 C 3.646,20.233 0,16.588 0,12.091 Z"
             style="fill:#c9c9c9;fill-opacity:1;fill-rule:nonzero;stroke:none"
             id="path320" /></g><g
           id="g322"
           transform="translate(1497.2568,1277.3246)"><path
             d="m 0,0 h 133.989 c 4.498,0 8.143,3.646 8.143,8.143 v 12.09 H -8.143 V 8.143 C -8.143,3.646 -4.497,0 0,0"
             style="fill:#c9c9c9;fill-opacity:1;fill-rule:nonzero;stroke:none"
             id="path324" /></g><g
           id="g326"
           transform="translate(1489.1139,1055.9556)"><path
             d="M 0,0 H 75.138 V 20.233 H 8.143 C 3.646,20.233 0,16.588 0,12.091 Z"
             style="fill:#ffffff;fill-opacity:1;fill-rule:nonzero;stroke:none"
             id="path328" /></g><g
           id="g330"
           transform="translate(1497.2567,1277.3246)"><path
             d="M 0,0 H 66.995 V 20.233 H -8.143 V 8.143 C -8.143,3.646 -4.497,0 0,0"
             style="fill:#ffffff;fill-opacity:1;fill-rule:nonzero;stroke:none"
             id="path332" /></g><g
           id="g334"
           transform="translate(1502.9088,1277.3246)"><path
             d="m 0,0 v -37.026 -0.358 c 0,-15.526 11.606,-30.017 30.858,-39.899 10.782,-5.535 17.654,-13.911 17.654,-23.285 0,-9.374 -6.872,-17.75 -17.654,-23.284 C 11.606,-133.735 0,-148.225 0,-163.751 v -0.359 -37.026 h 122.685 v 37.026 0.359 c 0,15.526 -11.606,30.016 -30.858,39.899 -10.781,5.534 -17.654,13.91 -17.654,23.284 0,9.374 6.873,17.75 17.654,23.285 19.252,9.882 30.858,24.373 30.858,39.899 V -37.026 0 Z"
             style="fill:#ffffff;fill-opacity:1;fill-rule:nonzero;stroke:none"
             id="path336" /></g><path
           d="m 1570.553,1077.255 h -12.603 v 99.502 h 12.603 z"
           style="fill:#29a8df;fill-opacity:1;fill-rule:nonzero;stroke:none"
           id="path338" /><g
           id="g340"
           transform="translate(1564.2515,1141.5016)"><path
             d="M 0,0 -52.958,-64.247 H 52.958 Z"
             style="fill:#29a8df;fill-opacity:1;fill-rule:nonzero;stroke:none"
             id="path342" /></g><g
           id="g344"
           transform="translate(1526.7367,1211.9607)"><path
             d="m 0,0 c 2.99,-2.174 6.332,-4.222 10.012,-6.111 13.473,-6.916 21.201,-17.52 21.201,-29.093 h 12.603 c 0,11.573 7.728,22.177 21.201,29.093 3.68,1.889 7.022,3.937 10.012,6.111 z"
             style="fill:#29a8df;fill-opacity:1;fill-rule:nonzero;stroke:none"
             id="path346" /></g><g
           id="g348"
           transform="translate(1502.9086,1277.3246)"><path
             d="m 0,0 v -37.026 -0.358 c 0,-15.526 11.606,-30.017 30.858,-39.899 10.782,-5.535 17.654,-13.911 17.654,-23.285 0,-9.374 -6.872,-17.75 -17.654,-23.284 C 11.606,-133.735 0,-148.225 0,-163.751 v -0.359 -37.026 h 122.685 v 37.026 0.359 c 0,15.526 -11.606,30.016 -30.858,39.899 -10.781,5.534 -17.654,13.91 -17.654,23.284 0,9.374 6.873,17.75 17.654,23.285 19.252,9.882 30.858,24.373 30.858,39.899 V -37.026 0 Z"
             style="fill:none;stroke:#54504f;stroke-width:8;stroke-linecap:round;stroke-linejoin:round;stroke-miterlimit:10;stroke-dasharray:none;stroke-opacity:1"
             id="path350" /></g><g
           id="g352"
           transform="translate(1489.1138,1055.9556)"><path
             d="m 0,0 h 150.275 v 12.091 c 0,4.497 -3.646,8.142 -8.143,8.142 H 8.143 C 3.646,20.233 0,16.588 0,12.091 Z"
             style="fill:none;stroke:#54504f;stroke-width:8;stroke-linecap:round;stroke-linejoin:round;stroke-miterlimit:10;stroke-dasharray:none;stroke-opacity:1"
             id="path354" /></g><g
           id="g356"
           transform="translate(1497.2566,1277.3246)"><path
             d="m 0,0 h 133.989 c 4.498,0 8.143,3.646 8.143,8.143 v 12.09 H -8.143 V 8.143 C -8.143,3.646 -4.497,0 0,0 Z"
             style="fill:none;stroke:#54504f;stroke-width:8;stroke-linecap:round;stroke-linejoin:round;stroke-miterlimit:10;stroke-dasharray:none;stroke-opacity:1"
             id="path358" /></g></g></g><g
       id="g360"><g
         id="g362"><g
           id="g368"><g
             id="g370"><path
               d="m 330.685,1176.757 c 0,-64.094 51.959,-116.053 116.052,-116.053 v 0 c 64.095,0 116.054,51.959 116.054,116.053 v 0 c 0,64.094 -51.959,116.052 -116.054,116.052 v 0 c -64.093,0 -116.052,-51.958 -116.052,-116.052"
               style="fill:url(#linearGradient376);stroke:none"
               id="path378" /></g></g></g></g><g
       id="g380"><g
         id="g382"><g
           id="g388"><g
             id="g390"><path
               d="m 350.942,1176.757 c 0,-52.906 42.89,-95.796 95.795,-95.796 v 0 c 52.907,0 95.797,42.89 95.797,95.796 v 0 c 0,52.906 -42.89,95.795 -95.797,95.795 v 0 c -52.905,0 -95.795,-42.889 -95.795,-95.795"
               style="fill:url(#linearGradient396);stroke:none"
               id="path398" /></g></g></g></g><g
       id="g400"><g
         id="g402"
         clip-path="url(#clipPath406)"><g
           id="g408"
           transform="translate(433.7472,1145.5751)"><path
             d="m 0,0 c 8.028,-4.218 13.3,-6.002 21.895,-6.002 13.3,0 20.52,5.352 20.52,14.517 0,3.974 -1.137,7.38 -3.489,9.651 -2.027,1.945 -4.946,3.162 -10.381,3.973 L 14.76,24.166 c -9.895,1.461 -17.031,4.461 -22.384,9.651 -5.595,5.434 -8.272,12.976 -8.272,22.626 0,17.518 11.029,30.656 29.844,34.143 v 3.812 c 0,4.217 0.163,5.838 1.216,7.867 1.381,2.513 4.137,4.136 7.624,4.136 3.486,0 6.246,-1.623 7.624,-4.136 1.053,-2.029 1.215,-3.65 1.215,-7.867 v -3.244 c 7.139,-0.73 12.815,-2.514 18.816,-5.272 5.432,-2.513 9.244,-6.488 9.244,-11.273 0,-2.269 -0.89,-4.866 -2.594,-6.974 -1.622,-1.865 -3.812,-3.082 -6.731,-3.082 -2.676,0 -5.758,1.217 -8.435,2.596 -6.162,3.244 -11.515,4.541 -18.247,4.541 -11.921,0 -17.76,-6.569 -17.76,-13.948 0,-3.57 0.893,-6.569 3.324,-8.84 2.433,-2.189 5.353,-3.649 10.706,-4.46 l 13.544,-1.947 c 10.541,-1.541 17.272,-4.379 22.139,-9.002 6.162,-5.758 8.921,-14.112 8.921,-24.411 0,-19.138 -13.707,-31.223 -32.927,-34.223 v -6.893 c 0,-4.218 -0.162,-5.92 -1.215,-7.867 -1.378,-2.514 -4.138,-4.136 -7.624,-4.136 -3.487,0 -6.243,1.622 -7.624,4.136 -1.053,1.947 -1.216,3.649 -1.216,7.867 v 6.325 c -8.191,0.649 -14.192,2.353 -21.005,5.678 -7.38,3.486 -11.515,6.73 -11.515,13.218 0,2.433 1.135,5.433 3.083,7.38 1.864,1.865 3.972,2.514 6.324,2.514 C -6.569,3.081 -4.298,2.27 0,0"
             style="fill:#29a8df;fill-opacity:1;fill-rule:nonzero;stroke:none"
             id="path410" /></g><g
           id="g412"
           transform="translate(572.7911,1176.7568)"><path
             d="m 0,0 c 0,-64.094 -51.958,-116.053 -116.053,-116.053 -64.094,0 -116.052,51.959 -116.052,116.053 0,64.094 51.958,116.052 116.052,116.052 C -51.958,116.052 0,64.094 0,0 Z"
             style="fill:none;stroke:#54504f;stroke-width:8;stroke-linecap:round;stroke-linejoin:round;stroke-miterlimit:10;stroke-dasharray:none;stroke-opacity:1"
             id="path414" /></g><g
           id="g416"
           transform="translate(552.5339,1176.7568)"><path
             d="m 0,0 c 0,-52.906 -42.889,-95.796 -95.795,-95.796 -52.907,0 -95.796,42.89 -95.796,95.796 0,52.906 42.889,95.795 95.796,95.795 C -42.889,95.795 0,52.906 0,0 Z"
             style="fill:none;stroke:#54504f;stroke-width:8;stroke-linecap:round;stroke-linejoin:round;stroke-miterlimit:10;stroke-dasharray:none;stroke-opacity:1"
             id="path418" /></g><g
           id="g420"
           transform="translate(489.3806,1179.0677)"><path
             d="m 0,0 c 6.162,-5.757 8.921,-14.111 8.921,-24.41 0,-19.139 -13.707,-31.223 -32.927,-34.224 v -6.893 c 0,-4.218 -0.163,-5.92 -1.216,-7.867 -1.378,-2.514 -4.137,-4.136 -7.624,-4.136 -3.486,0 -6.243,1.622 -7.623,4.136 -1.053,1.947 -1.216,3.649 -1.216,7.867 v 6.326 c -8.191,0.648 -14.193,2.352 -21.005,5.677 -7.38,3.487 -11.515,6.73 -11.515,13.219 0,2.432 1.134,5.433 3.082,7.379 1.864,1.866 3.972,2.514 6.325,2.514 2.596,0 4.867,-0.811 9.165,-3.081 8.028,-4.217 13.3,-6.001 21.895,-6.001 13.3,0 20.519,5.352 20.519,14.517 0,3.973 -1.136,7.379 -3.489,9.65 -2.026,1.946 -4.946,3.162 -10.38,3.974 l -13.786,2.026 c -9.895,1.462 -17.03,4.461 -22.383,9.651 -5.595,5.435 -8.273,12.976 -8.273,22.627 0,17.517 11.029,30.656 29.845,34.142 v 3.812 c 0,4.218 0.163,5.839 1.216,7.867 1.38,2.514 4.137,4.136 7.623,4.136 3.487,0 6.246,-1.622 7.624,-4.136 1.053,-2.028 1.216,-3.649 1.216,-7.867 v -3.244 c 7.138,-0.729 12.814,-2.513 18.816,-5.271 5.432,-2.514 9.244,-6.489 9.244,-11.273 0,-2.27 -0.891,-4.866 -2.594,-6.975 -1.623,-1.865 -3.812,-3.082 -6.732,-3.082 -2.675,0 -5.757,1.217 -8.435,2.597 -6.162,3.243 -11.515,4.54 -18.246,4.54 -11.922,0 -17.76,-6.568 -17.76,-13.948 0,-3.569 0.892,-6.569 3.323,-8.84 2.434,-2.189 5.353,-3.649 10.706,-4.46"
             style="fill:none;stroke:#54504f;stroke-width:8;stroke-linecap:round;stroke-linejoin:round;stroke-miterlimit:10;stroke-dasharray:none;stroke-opacity:1"
             id="path422" /></g></g></g><g
       id="g424"><g
         id="g426"><g
           id="g432"><g
             id="g434"><path
               d="m 338.773,791.407 c 0.445,-62.316 51.856,-112.274 114.174,-112.274 v 0 h 112.022 l -11.313,12.705 c -10.692,12.008 -12.217,29.487 -4.097,43.364 v 0 c 9.66,16.511 15.254,35.692 15.407,56.166 v 0 c 0.462,61.781 -49.347,112.892 -111.119,113.947 v 0 c -0.657,0.011 -1.323,0.016 -1.977,0.016 v 0 C 389.128,905.337 338.325,854.252 338.773,791.407"
               style="fill:url(#linearGradient440);stroke:none"
               id="path442" /></g></g></g></g><g
       id="g444"><g
         id="g446"
         clip-path="url(#clipPath450)"><g
           id="g452"
           transform="translate(559.2955,735.2016)"><path
             d="m 0,0 c 9.66,16.512 15.254,35.692 15.407,56.167 0.462,61.78 -49.346,112.891 -111.119,113.946 -63.644,1.086 -115.526,-50.408 -115.073,-113.908 0.445,-62.316 51.855,-112.273 114.173,-112.273 H 15.411 L 4.097,-43.363 C -6.595,-31.356 -8.119,-13.877 0,0 Z"
             style="fill:none;stroke:#54504f;stroke-width:8;stroke-linecap:round;stroke-linejoin:round;stroke-miterlimit:10;stroke-dasharray:none;stroke-opacity:1"
             id="path454" /></g><g
           id="g456"
           transform="translate(408.3867,823.3417)"><path
             d="m 0,0 h 106.441 c 7.241,0 13.112,5.871 13.112,13.112 0,7.242 -5.871,13.112 -13.112,13.112 H 0 c -7.242,0 -13.112,-5.87 -13.112,-13.112 C -13.112,5.871 -7.242,0 0,0"
             style="fill:#29a8df;fill-opacity:1;fill-rule:nonzero;stroke:none"
             id="path458" /></g><g
           id="g460"
           transform="translate(408.3867,779.1199)"><path
             d="m 0,0 h 106.441 c 7.241,0 13.112,5.871 13.112,13.112 v 0 c 0,7.242 -5.871,13.113 -13.112,13.113 H 0 c -7.242,0 -13.112,-5.871 -13.112,-13.113 v 0 C -13.112,5.871 -7.242,0 0,0"
             style="fill:#29a8df;fill-opacity:1;fill-rule:nonzero;stroke:none"
             id="path462" /></g><g
           id="g464"
           transform="translate(408.3867,734.8983)"><path
             d="m 0,0 h 65.302 c 7.241,0 13.112,5.871 13.112,13.112 0,7.242 -5.871,13.112 -13.112,13.112 H 0 c -7.242,0 -13.112,-5.87 -13.112,-13.112 C -13.112,5.871 -7.242,0 0,0"
             style="fill:#29a8df;fill-opacity:1;fill-rule:nonzero;stroke:none"
             id="path466" /></g><g
           id="g468"
           transform="translate(717.0014,1469.6067)"><path
             d="m 0,0 c 16.485,17.593 26.682,41.148 27.005,67.081 0.697,55.56 -43.601,100.834 -99.162,101.293 -55.56,-0.459 -99.859,-45.733 -99.161,-101.293 0.323,-25.933 10.52,-49.488 27.004,-67.081 0.262,-0.278 0.526,-0.554 0.791,-0.829 l -0.794,0.805 c 0.641,-0.672 1.286,-1.331 1.937,-1.981 0.062,-0.063 0.123,-0.126 0.185,-0.189 0.005,-0.005 0.012,-0.01 0.018,-0.015 0.081,-0.082 0.163,-0.161 0.244,-0.242 0.195,-0.195 0.39,-0.391 0.587,-0.585 l -0.122,0.123 c 0.046,-0.045 0.092,-0.09 0.138,-0.136 10.458,-10.257 16.163,-24.361 15.839,-39.005 -0.003,-0.212 -0.007,-4.153 -0.007,-4.369 0,-0.06 -0.004,-0.123 0,-0.186 -0.004,-0.127 -0.004,-0.253 -0.004,-0.38 0,-29.315 23.002,-49.303 52.037,-50.428 h 1.308 1.308 c 29.035,1.125 52.037,21.113 52.037,50.428 0,0.127 0,0.253 -0.004,0.38 0.004,0.063 0,0.126 0,0.186 0,0.216 -0.003,4.157 -0.007,4.369 -0.324,14.644 5.382,28.748 15.84,39.005 0.045,0.046 0.091,0.091 0.137,0.136 l -0.122,-0.123 c 0.197,0.194 0.392,0.39 0.587,0.585 0.082,0.081 0.163,0.16 0.244,0.242 0.007,0.005 0.013,0.01 0.018,0.015 0.062,0.063 0.123,0.126 0.185,0.189 0.651,0.65 1.296,1.309 1.938,1.981 L -0.79,-0.829 C -0.526,-0.554 -0.261,-0.278 0,0"
             style="fill:#ffffff;fill-opacity:1;fill-rule:nonzero;stroke:none"
             id="path470" /></g><g
           id="g472"
           transform="translate(708.1864,1422.9976)"><path
             d="m 0,0 c 0.004,0.063 0,0.127 0,0.186 0,0.216 -0.004,4.157 -0.007,4.369 -0.324,14.644 5.381,28.749 15.839,39.006 0.046,0.045 0.092,0.09 0.137,0.135 l -0.121,-0.123 c 0.196,0.194 0.392,0.39 0.587,0.585 0.081,0.081 0.163,0.16 0.244,0.242 0.006,0.005 0.013,0.01 0.018,0.015 0.062,0.063 0.123,0.127 0.185,0.189 0.65,0.651 1.296,1.309 1.937,1.981 L 18.025,45.78 c 0.265,0.275 0.529,0.551 0.791,0.829 16.484,17.593 26.681,41.148 27.004,67.081 0.698,55.561 -43.601,100.834 -99.161,101.293 -55.561,-0.459 -99.859,-45.732 -99.162,-101.293 0.323,-25.933 10.52,-49.488 27.005,-67.081 0.261,-0.278 0.526,-0.554 0.79,-0.829 l -0.794,0.805 c 0.642,-0.672 1.287,-1.33 1.938,-1.981 0.061,-0.062 0.123,-0.126 0.185,-0.189 0.005,-0.005 0.011,-0.01 0.018,-0.015 0.081,-0.082 0.162,-0.161 0.243,-0.242 0.196,-0.195 0.391,-0.391 0.588,-0.585 l -0.122,0.123 c 0.046,-0.045 0.092,-0.09 0.137,-0.135 10.458,-10.257 16.164,-24.362 15.84,-39.006 -0.004,-0.212 -0.007,-4.153 -0.007,-4.369 0,-0.059 -0.004,-0.123 0,-0.186 -0.004,-0.127 -0.004,-0.253 -0.004,-0.38 0,-29.315 23.002,-49.303 52.037,-50.428 h 1.308 1.308"
             style="fill:none;stroke:#54504f;stroke-width:8;stroke-linecap:round;stroke-linejoin:round;stroke-miterlimit:10;stroke-dasharray:none;stroke-opacity:1"
             id="path474" /></g><g
           id="g476"
           transform="translate(654.8404,1552.2289)"><path
             d="m 0,0 c -3.152,-6.027 -6.666,-11.989 -10.54,-17.865 -3.148,6.162 -5.93,12.382 -8.345,18.637 -3.864,-5.74 -8.083,-11.386 -12.653,-16.917 -2.399,6.391 -4.429,12.809 -6.09,19.232 -4.549,-5.394 -9.443,-10.665 -14.675,-15.79 l 26.152,-111.973"
             style="fill:none;stroke:#29a8df;stroke-width:12;stroke-linecap:round;stroke-linejoin:round;stroke-miterlimit:10;stroke-dasharray:none;stroke-opacity:1"
             id="path478" /></g><g
           id="g480"
           transform="translate(654.8404,1552.2289)"><path
             d="m 0,0 c 3.152,-6.027 6.666,-11.989 10.54,-17.865 3.148,6.162 5.93,12.382 8.345,18.637 3.864,-5.74 8.083,-11.386 12.653,-16.917 2.399,6.391 4.429,12.809 6.09,19.232 4.549,-5.394 9.443,-10.665 14.675,-15.79 L 26.151,-124.676"
             style="fill:none;stroke:#29a8df;stroke-width:12;stroke-linecap:round;stroke-linejoin:round;stroke-miterlimit:10;stroke-dasharray:none;stroke-opacity:1"
             id="path482" /></g><g
           id="g484"
           transform="translate(654.8451,1680.4567)"><path
             d="M 0,0 V -28.075"
             style="fill:none;stroke:#29a8df;stroke-width:12;stroke-linecap:round;stroke-linejoin:round;stroke-miterlimit:10;stroke-dasharray:none;stroke-opacity:1"
             id="path486" /></g><g
           id="g488"
           transform="translate(796.2405,1539.0614)"><path
             d="M 0,0 H -28.075"
             style="fill:none;stroke:#29a8df;stroke-width:12;stroke-linecap:round;stroke-linejoin:round;stroke-miterlimit:10;stroke-dasharray:none;stroke-opacity:1"
             id="path490" /></g><g
           id="g492"
           transform="translate(541.5245,1539.0614)"><path
             d="M 0,0 H -28.075"
             style="fill:none;stroke:#29a8df;stroke-width:12;stroke-linecap:round;stroke-linejoin:round;stroke-miterlimit:10;stroke-dasharray:none;stroke-opacity:1"
             id="path494" /></g><g
           id="g496"
           transform="translate(754.8267,1639.043)"><path
             d="M 0,0 -19.852,-19.852"
             style="fill:none;stroke:#29a8df;stroke-width:12;stroke-linecap:round;stroke-linejoin:round;stroke-miterlimit:10;stroke-dasharray:none;stroke-opacity:1"
             id="path498" /></g><g
           id="g500"
           transform="translate(574.7153,1619.1912)"><path
             d="M 0,0 -19.852,19.852"
             style="fill:none;stroke:#29a8df;stroke-width:12;stroke-linecap:round;stroke-linejoin:round;stroke-miterlimit:10;stroke-dasharray:none;stroke-opacity:1"
             id="path502" /></g><g
           id="g504"
           transform="translate(759.5397,1582.4272)"><path
             d="M 0,0 25.938,10.744"
             style="fill:none;stroke:#29a8df;stroke-width:12;stroke-linecap:round;stroke-linejoin:round;stroke-miterlimit:10;stroke-dasharray:none;stroke-opacity:1"
             id="path506" /></g><g
           id="g508"
           transform="translate(600.7355,1669.6936)"><path
             d="M 0,0 10.744,-25.938"
             style="fill:none;stroke:#29a8df;stroke-width:12;stroke-linecap:round;stroke-linejoin:round;stroke-miterlimit:10;stroke-dasharray:none;stroke-opacity:1"
             id="path510" /></g><g
           id="g512"
           transform="translate(524.2128,1593.171)"><path
             d="M 0,0 25.938,-10.744"
             style="fill:none;stroke:#29a8df;stroke-width:12;stroke-linecap:round;stroke-linejoin:round;stroke-miterlimit:10;stroke-dasharray:none;stroke-opacity:1"
             id="path514" /></g><g
           id="g516"
           transform="translate(708.9548,1669.6936)"><path
             d="M 0,0 -10.744,-25.938"
             style="fill:none;stroke:#29a8df;stroke-width:12;stroke-linecap:round;stroke-linejoin:round;stroke-miterlimit:10;stroke-dasharray:none;stroke-opacity:1"
             id="path518" /></g><g
           id="g520"
           transform="translate(644.8446,1338.0734)"><path
             d="M 0,0 V 0 C -29.453,0 -53.328,23.876 -53.328,53.328 V 58.1 H 53.328 V 53.328 C 53.328,23.876 29.452,0 0,0"
             style="fill:#c9c9c9;fill-opacity:1;fill-rule:nonzero;stroke:none"
             id="path522" /></g><g
           id="g524"
           transform="translate(702.0156,1366.502)"><path
             d="m 0,0 c -8.944,-16.908 -26.712,-28.429 -47.17,-28.429 h -10e-4 c -29.452,0 -53.328,23.876 -53.328,53.329 v 4.772"
             style="fill:none;stroke:#54504f;stroke-width:8;stroke-linecap:round;stroke-linejoin:round;stroke-miterlimit:10;stroke-dasharray:none;stroke-opacity:1"
             id="path526" /></g><g
           id="g528"
           transform="translate(590.6995,1367.1237)"><path
             d="m 0,0 h 108.29 c 2.854,0 5.168,2.314 5.168,5.168 v 50.093 c 0,2.854 -2.314,5.168 -5.168,5.168 H 0 c -2.854,0 -5.168,-2.314 -5.168,-5.168 V 5.168 C -5.168,2.314 -2.854,0 0,0"
             style="fill:#c9c9c9;fill-opacity:1;fill-rule:nonzero;stroke:none"
             id="path530" /></g><g
           id="g532"
           transform="translate(600.7001,1367.1237)"><path
             d="m 0,0 h 108.29 c 2.854,0 5.168,2.314 5.168,5.168 v 50.093 c 0,2.854 -2.314,5.168 -5.168,5.168 H 0 c -2.854,0 -5.168,-2.314 -5.168,-5.168 V 5.168 C -5.168,2.314 -2.854,0 0,0 Z"
             style="fill:none;stroke:#54504f;stroke-width:8;stroke-linecap:round;stroke-linejoin:round;stroke-miterlimit:10;stroke-dasharray:none;stroke-opacity:1"
             id="path534" /></g><g
           id="g536"
           transform="translate(589.3785,1413.6428)"><path
             d="m 0,0 v 0 c 0,-2.568 2.423,-4.588 5.248,-4.375 l 121.241,9.139 c 2.512,0.189 4.444,2.091 4.444,4.375 0,2.568 -2.422,4.588 -5.247,4.375 L 4.444,4.375 C 1.932,4.186 0,2.284 0,0"
             style="fill:#e9eaec;fill-opacity:1;fill-rule:nonzero;stroke:none"
             id="path538" /></g><g
           id="g540"
           transform="translate(589.3785,1371.8944)"><path
             d="m 0,0 v 0 c 0,-2.568 2.423,-4.588 5.248,-4.375 l 121.241,9.139 c 2.512,0.189 4.444,2.091 4.444,4.375 0,2.568 -2.422,4.588 -5.247,4.375 L 4.444,4.375 C 1.932,4.186 0,2.284 0,0"
             style="fill:#e9eaec;fill-opacity:1;fill-rule:nonzero;stroke:none"
             id="path542" /></g><g
           id="g544"
           transform="translate(589.3785,1392.7686)"><path
             d="m 0,0 v 0 c 0,-2.568 2.423,-4.588 5.248,-4.375 l 121.241,9.139 c 2.512,0.189 4.444,2.091 4.444,4.375 0,2.568 -2.422,4.588 -5.247,4.375 L 4.444,4.375 C 1.932,4.186 0,2.284 0,0"
             style="fill:#e9eaec;fill-opacity:1;fill-rule:nonzero;stroke:none"
             id="path546" /></g><g
           id="g548"
           transform="translate(593.8226,1418.0181)"><path
             d="m 0,0 c -2.512,-0.189 -4.444,-2.092 -4.444,-4.375 0,-2.568 2.423,-4.588 5.248,-4.375 l 121.241,9.139 c 2.512,0.189 4.444,2.091 4.444,4.375"
             style="fill:none;stroke:#54504f;stroke-width:8;stroke-linecap:round;stroke-linejoin:round;stroke-miterlimit:10;stroke-dasharray:none;stroke-opacity:1"
             id="path550" /></g><g
           id="g552"
           transform="translate(593.8226,1376.2697)"><path
             d="m 0,0 c -2.512,-0.189 -4.444,-2.092 -4.444,-4.375 0,-2.569 2.423,-4.589 5.248,-4.375 l 121.241,9.139 c 2.512,0.189 4.444,2.091 4.444,4.375"
             style="fill:none;stroke:#54504f;stroke-width:8;stroke-linecap:round;stroke-linejoin:round;stroke-miterlimit:10;stroke-dasharray:none;stroke-opacity:1"
             id="path554" /></g><g
           id="g556"
           transform="translate(593.8226,1397.1438)"><path
             d="m 0,0 c -2.512,-0.189 -4.444,-2.092 -4.444,-4.375 0,-2.568 2.423,-4.588 5.248,-4.375 l 121.241,9.139 c 2.512,0.189 4.444,2.091 4.444,4.375"
             style="fill:none;stroke:#54504f;stroke-width:8;stroke-linecap:round;stroke-linejoin:round;stroke-miterlimit:10;stroke-dasharray:none;stroke-opacity:1"
             id="path558" /></g><path
           d="m 1272.797,1461.432 h -54.109 v -123.359 h 54.109 z"
           style="fill:none;stroke:#54504f;stroke-width:8;stroke-linecap:round;stroke-linejoin:round;stroke-miterlimit:10;stroke-dasharray:none;stroke-opacity:1"
           id="path560" /><path
           d="m 1355.209,1561.439 h -54.11 v -223.365 h 54.11 z"
           style="fill:none;stroke:#54504f;stroke-width:8;stroke-linecap:round;stroke-linejoin:round;stroke-miterlimit:10;stroke-dasharray:none;stroke-opacity:1"
           id="path562" /><path
           d="m 1437.62,1661.445 h -54.109 v -323.372 h 54.109 z"
           style="fill:none;stroke:#54504f;stroke-width:8;stroke-linecap:round;stroke-linejoin:round;stroke-miterlimit:10;stroke-dasharray:none;stroke-opacity:1"
           id="path564" /><g
           id="g566"
           transform="translate(1610.6521,870.3405)"><path
             d="M 0,0 V 0 C 6.384,1.342 12.647,-2.746 13.989,-9.13 L 0.887,53.213 c -1.341,6.384 -7.604,10.472 -13.989,9.131 -6.384,-1.342 -10.471,-7.605 -9.13,-13.989 L -9.13,-13.989 C -10.472,-7.605 -6.384,-1.342 0,0"
             style="fill:#ffffff;fill-opacity:1;fill-rule:nonzero;stroke:none"
             id="path568" /></g><g
           id="g570"
           transform="translate(1467.7784,679.4182)"><path
             d="m 0,0 c -3.563,0.622 -6.987,2.265 -9.808,4.94 -31.027,29.429 -43.444,73.353 -32.404,114.633 2.717,10.157 13.153,16.196 23.312,13.473 10.158,-2.716 16.19,-13.153 13.473,-23.312 -7.43,-27.783 0.932,-57.351 21.823,-77.166 7.63,-7.236 7.948,-19.287 0.712,-26.916 C 12.547,0.844 6.073,-1.061 0,0"
             style="fill:#29a8df;fill-opacity:1;fill-rule:nonzero;stroke:none"
             id="path572" /></g><g
           id="g574"
           transform="translate(1472.3525,789.1527)"><path
             d="m 0,0 c -7.43,-27.783 0.932,-57.352 21.823,-77.166 7.629,-7.236 7.948,-19.287 0.712,-26.916 -4.561,-4.809 -11.035,-6.713 -17.108,-5.652 -3.563,0.622 -6.988,2.264 -9.809,4.94 -31.027,29.428 -43.443,73.353 -32.404,114.632 2.717,10.158 13.154,16.196 23.312,13.474"
             style="fill:none;stroke:#54504f;stroke-width:8;stroke-linecap:round;stroke-linejoin:round;stroke-miterlimit:10;stroke-dasharray:none;stroke-opacity:1"
             id="path576" /></g><g
           id="g578"
           transform="translate(1469.649,837.5428)"><path
             d="m 0,0 15.218,-72.417 c 51.974,10.923 102.358,2.64 139.881,-19.297 L 120.281,73.971 C 94.762,38.785 51.974,10.922 0,0"
             style="fill:#ffffff;fill-opacity:1;fill-rule:nonzero;stroke:none"
             id="path580" /></g><g
           id="g582"
           transform="translate(1468.149,796.9306)"><path
             d="m 0,0 6.684,-31.804 c 51.973,10.922 102.358,2.64 139.881,-19.298 l -7.669,36.492 C 99.318,3.211 50.466,9.339 0,0"
             style="fill:#29a8df;fill-opacity:1;fill-rule:nonzero;stroke:none"
             id="path584" /></g><g
           id="g586"
           transform="translate(1425.1813,746.5831)"><path
             d="m 0,0 45.484,9.559 c 3.221,0.676 5.283,3.836 4.606,7.057 L 34.062,92.887 c -0.677,3.221 -3.836,5.283 -7.057,4.606 L -18.479,87.935 C -42.762,82.832 -58.31,59.01 -53.207,34.728 v 0 C -48.104,10.445 -24.282,-5.103 0,0"
             style="fill:#29a8df;fill-opacity:1;fill-rule:nonzero;stroke:none"
             id="path588" /></g><g
           id="g590"
           transform="translate(1393.4467,764.2551)"><path
             d="m 0,0 v 0 c -5.103,24.283 10.445,48.104 34.728,53.207 l 43.762,9.197 -2.693,12.811 c -0.677,3.221 -3.836,5.283 -7.057,4.606 L 23.256,70.263 C -1.027,65.16 -16.575,41.338 -11.472,17.056 v 0 C -9.484,7.597 -4.656,-0.536 1.933,-6.639 1.132,-4.511 0.482,-2.295 0,0"
             style="fill:#ffffff;fill-opacity:1;fill-rule:nonzero;stroke:none"
             id="path592" /></g><g
           id="g594"
           transform="translate(1469.649,837.5428)"><path
             d="m 0,0 15.218,-72.417 c 51.974,10.923 102.358,2.64 139.881,-19.297 L 120.281,73.971 C 94.762,38.785 51.974,10.922 0,0 Z"
             style="fill:none;stroke:#54504f;stroke-width:8;stroke-linecap:round;stroke-linejoin:round;stroke-miterlimit:10;stroke-dasharray:none;stroke-opacity:1"
             id="path596" /></g><g
           id="g598"
           transform="translate(1435.1819,746.5831)"><path
             d="m 0,0 45.484,9.559 c 3.221,0.676 5.283,3.836 4.606,7.057 L 34.062,92.887 c -0.677,3.221 -3.836,5.283 -7.057,4.606 L -18.479,87.935 C -42.762,82.832 -58.31,59.01 -53.207,34.728 v 0 C -48.104,10.445 -24.282,-5.103 0,0 Z"
             style="fill:none;stroke:#54504f;stroke-width:8;stroke-linecap:round;stroke-linejoin:round;stroke-miterlimit:10;stroke-dasharray:none;stroke-opacity:1"
             id="path600" /></g><g
           id="g602"
           transform="translate(1622.4069,871.8411)"><path
             d="M 0,0 16.102,-76.623 C 32.815,-51.018 25.605,-16.712 0,0"
             style="fill:#e3e3e3;fill-opacity:1;fill-rule:nonzero;stroke:none"
             id="path604" /></g><g
           id="g606"
           transform="translate(1622.4069,871.8411)"><path
             d="M 0,0 16.102,-76.623 C 32.815,-51.018 25.605,-16.712 0,0 Z"
             style="fill:none;stroke:#54504f;stroke-width:8;stroke-linecap:round;stroke-linejoin:round;stroke-miterlimit:10;stroke-dasharray:none;stroke-opacity:1"
             id="path608" /></g><g
           id="g610"
           transform="translate(1629.5107,729.5162)"><path
             d="m 0,0 v 0 c -6.384,-1.342 -12.647,2.746 -13.989,9.13 l -24.736,117.706 c -1.341,6.384 2.746,12.647 9.131,13.988 v 0 c 6.384,1.342 12.647,-2.746 13.989,-9.13 L 9.13,13.989 C 10.472,7.605 6.384,1.342 0,0"
             style="fill:#29a8df;fill-opacity:1;fill-rule:nonzero;stroke:none"
             id="path612" /></g><g
           id="g614"
           transform="translate(1640.2465,729.5162)"><path
             d="m 0,0 v 0 c -6.384,-1.342 -12.647,2.746 -13.989,9.13 l -37.837,180.049 c -1.342,6.384 2.746,12.647 9.13,13.989 6.384,1.342 12.647,-2.746 13.989,-9.13 L 9.13,13.989 C 10.472,7.605 6.384,1.342 0,0 Z"
             style="fill:none;stroke:#54504f;stroke-width:8;stroke-linecap:round;stroke-linejoin:round;stroke-miterlimit:10;stroke-dasharray:none;stroke-opacity:1"
             id="path616" /></g></g></g></g></svg>
